<mxfile host="app.diagrams.net" modified="2021-01-11T06:44:50.819Z" agent="5.0 (Macintosh; Intel Mac OS X 11_1_0) AppleWebKit/537.36 (KHTML, like Gecko) Chrome/87.0.4280.88 Safari/537.36" etag="1WoXBqvStYPz0eRc0G1D" version="14.1.8" type="github">
  <diagram id="IqknK0kPTcSjH_NUfwJQ" name="Page-1">
    <mxGraphModel dx="3063" dy="589" grid="1" gridSize="10" guides="1" tooltips="1" connect="1" arrows="1" fold="1" page="1" pageScale="1" pageWidth="1920" pageHeight="1200" math="0" shadow="0">
      <root>
        <mxCell id="0" />
        <mxCell id="1" parent="0" />
        <mxCell id="EvDbIWPLK_iTkj3-h5W0-6" style="edgeStyle=orthogonalEdgeStyle;rounded=0;orthogonalLoop=1;jettySize=auto;html=1;exitX=0.5;exitY=1;exitDx=0;exitDy=0;entryX=0.5;entryY=0;entryDx=0;entryDy=0;" edge="1" parent="1" source="EvDbIWPLK_iTkj3-h5W0-2" target="EvDbIWPLK_iTkj3-h5W0-5">
          <mxGeometry relative="1" as="geometry" />
        </mxCell>
        <mxCell id="EvDbIWPLK_iTkj3-h5W0-2" value="线索生成" style="rounded=1;whiteSpace=wrap;html=1;" vertex="1" parent="1">
          <mxGeometry x="-60" y="120" width="80" height="40" as="geometry" />
        </mxCell>
        <mxCell id="EvDbIWPLK_iTkj3-h5W0-8" style="edgeStyle=orthogonalEdgeStyle;rounded=0;orthogonalLoop=1;jettySize=auto;html=1;exitX=0.5;exitY=1;exitDx=0;exitDy=0;entryX=0.5;entryY=0;entryDx=0;entryDy=0;" edge="1" parent="1" source="EvDbIWPLK_iTkj3-h5W0-5" target="EvDbIWPLK_iTkj3-h5W0-7">
          <mxGeometry relative="1" as="geometry" />
        </mxCell>
        <mxCell id="EvDbIWPLK_iTkj3-h5W0-5" value="实时/非实时线索" style="rounded=1;whiteSpace=wrap;html=1;" vertex="1" parent="1">
          <mxGeometry x="-75" y="180" width="110" height="40" as="geometry" />
        </mxCell>
        <mxCell id="EvDbIWPLK_iTkj3-h5W0-9" style="edgeStyle=orthogonalEdgeStyle;rounded=0;orthogonalLoop=1;jettySize=auto;html=1;exitX=0.5;exitY=1;exitDx=0;exitDy=0;" edge="1" parent="1" source="EvDbIWPLK_iTkj3-h5W0-7">
          <mxGeometry relative="1" as="geometry">
            <mxPoint x="-20" y="310" as="targetPoint" />
          </mxGeometry>
        </mxCell>
        <mxCell id="EvDbIWPLK_iTkj3-h5W0-12" style="edgeStyle=orthogonalEdgeStyle;rounded=0;orthogonalLoop=1;jettySize=auto;html=1;exitX=1;exitY=0.5;exitDx=0;exitDy=0;entryX=1;entryY=0.5;entryDx=0;entryDy=0;" edge="1" parent="1" source="EvDbIWPLK_iTkj3-h5W0-7" target="EvDbIWPLK_iTkj3-h5W0-5">
          <mxGeometry relative="1" as="geometry" />
        </mxCell>
        <mxCell id="EvDbIWPLK_iTkj3-h5W0-7" value="根据tagid，phone，business_id查询近三十天是否有创建" style="rounded=1;whiteSpace=wrap;html=1;" vertex="1" parent="1">
          <mxGeometry x="-107.5" y="240" width="175" height="40" as="geometry" />
        </mxCell>
        <mxCell id="EvDbIWPLK_iTkj3-h5W0-10" value="否" style="text;html=1;align=center;verticalAlign=middle;resizable=0;points=[];autosize=1;" vertex="1" parent="1">
          <mxGeometry x="-15" y="280" width="30" height="20" as="geometry" />
        </mxCell>
        <mxCell id="EvDbIWPLK_iTkj3-h5W0-13" value="是" style="text;html=1;align=center;verticalAlign=middle;resizable=0;points=[];autosize=1;" vertex="1" parent="1">
          <mxGeometry x="87.5" y="220" width="30" height="20" as="geometry" />
        </mxCell>
        <mxCell id="EvDbIWPLK_iTkj3-h5W0-15" style="edgeStyle=orthogonalEdgeStyle;rounded=0;orthogonalLoop=1;jettySize=auto;html=1;exitX=0.5;exitY=1;exitDx=0;exitDy=0;" edge="1" parent="1" source="EvDbIWPLK_iTkj3-h5W0-14">
          <mxGeometry relative="1" as="geometry">
            <mxPoint x="-19.5" y="390" as="targetPoint" />
          </mxGeometry>
        </mxCell>
        <mxCell id="EvDbIWPLK_iTkj3-h5W0-17" style="edgeStyle=orthogonalEdgeStyle;rounded=0;orthogonalLoop=1;jettySize=auto;html=1;exitX=0;exitY=0.5;exitDx=0;exitDy=0;entryX=0;entryY=0.5;entryDx=0;entryDy=0;" edge="1" parent="1" source="EvDbIWPLK_iTkj3-h5W0-14" target="EvDbIWPLK_iTkj3-h5W0-5">
          <mxGeometry relative="1" as="geometry">
            <Array as="points">
              <mxPoint x="-147.5" y="330" />
              <mxPoint x="-147.5" y="200" />
            </Array>
          </mxGeometry>
        </mxCell>
        <mxCell id="EvDbIWPLK_iTkj3-h5W0-14" value="根据type，phone查询近三十天是否有创建" style="rounded=1;whiteSpace=wrap;html=1;" vertex="1" parent="1">
          <mxGeometry x="-107.5" y="310" width="175" height="40" as="geometry" />
        </mxCell>
        <mxCell id="EvDbIWPLK_iTkj3-h5W0-16" value="否" style="text;html=1;align=center;verticalAlign=middle;resizable=0;points=[];autosize=1;" vertex="1" parent="1">
          <mxGeometry x="-15" y="360" width="30" height="20" as="geometry" />
        </mxCell>
        <mxCell id="EvDbIWPLK_iTkj3-h5W0-18" value="是" style="text;html=1;align=center;verticalAlign=middle;resizable=0;points=[];autosize=1;" vertex="1" parent="1">
          <mxGeometry x="-187.5" y="250" width="30" height="20" as="geometry" />
        </mxCell>
        <mxCell id="EvDbIWPLK_iTkj3-h5W0-19" value="注：抓取上限&lt;br&gt;根据service的cron 确定每个坐席每天量的&lt;br&gt;配置文件由leads_assign_record" style="text;html=1;align=center;verticalAlign=middle;resizable=0;points=[];autosize=1;" vertex="1" parent="1">
          <mxGeometry x="-300" y="80" width="240" height="50" as="geometry" />
        </mxCell>
        <mxCell id="EvDbIWPLK_iTkj3-h5W0-27" style="edgeStyle=orthogonalEdgeStyle;rounded=0;orthogonalLoop=1;jettySize=auto;html=1;exitX=0.5;exitY=1;exitDx=0;exitDy=0;entryX=0.5;entryY=0;entryDx=0;entryDy=0;" edge="1" parent="1" source="EvDbIWPLK_iTkj3-h5W0-22" target="EvDbIWPLK_iTkj3-h5W0-26">
          <mxGeometry relative="1" as="geometry" />
        </mxCell>
        <mxCell id="EvDbIWPLK_iTkj3-h5W0-29" style="edgeStyle=orthogonalEdgeStyle;rounded=0;orthogonalLoop=1;jettySize=auto;html=1;exitX=0.5;exitY=1;exitDx=0;exitDy=0;entryX=0.5;entryY=0;entryDx=0;entryDy=0;" edge="1" parent="1" source="EvDbIWPLK_iTkj3-h5W0-22" target="EvDbIWPLK_iTkj3-h5W0-28">
          <mxGeometry relative="1" as="geometry" />
        </mxCell>
        <mxCell id="EvDbIWPLK_iTkj3-h5W0-22" value="根据qsid查询成单列表" style="rounded=1;whiteSpace=wrap;html=1;" vertex="1" parent="1">
          <mxGeometry x="-91" y="390" width="142" height="30" as="geometry" />
        </mxCell>
        <mxCell id="EvDbIWPLK_iTkj3-h5W0-24" value="" style="edgeStyle=orthogonalEdgeStyle;rounded=0;orthogonalLoop=1;jettySize=auto;html=1;" edge="1" parent="1" source="EvDbIWPLK_iTkj3-h5W0-23" target="EvDbIWPLK_iTkj3-h5W0-22">
          <mxGeometry relative="1" as="geometry" />
        </mxCell>
        <mxCell id="EvDbIWPLK_iTkj3-h5W0-23" value="按照新增字段方案&lt;br&gt;tagtype&amp;nbsp; 线索类型&lt;br&gt;remindID 提醒ID" style="text;html=1;align=left;verticalAlign=middle;resizable=0;points=[];autosize=1;" vertex="1" parent="1">
          <mxGeometry x="-247.5" y="380" width="110" height="50" as="geometry" />
        </mxCell>
        <mxCell id="EvDbIWPLK_iTkj3-h5W0-31" style="edgeStyle=orthogonalEdgeStyle;rounded=0;orthogonalLoop=1;jettySize=auto;html=1;exitX=0.5;exitY=1;exitDx=0;exitDy=0;" edge="1" parent="1" source="EvDbIWPLK_iTkj3-h5W0-26" target="EvDbIWPLK_iTkj3-h5W0-30">
          <mxGeometry relative="1" as="geometry" />
        </mxCell>
        <mxCell id="EvDbIWPLK_iTkj3-h5W0-35" style="edgeStyle=orthogonalEdgeStyle;rounded=0;orthogonalLoop=1;jettySize=auto;html=1;exitX=0;exitY=0.5;exitDx=0;exitDy=0;entryX=0;entryY=0.5;entryDx=0;entryDy=0;" edge="1" parent="1" source="EvDbIWPLK_iTkj3-h5W0-26" target="EvDbIWPLK_iTkj3-h5W0-33">
          <mxGeometry relative="1" as="geometry">
            <Array as="points">
              <mxPoint x="-227.5" y="490" />
              <mxPoint x="-227.5" y="660" />
            </Array>
          </mxGeometry>
        </mxCell>
        <mxCell id="EvDbIWPLK_iTkj3-h5W0-26" value="提醒类线索&lt;br&gt;tagtype=1&lt;br&gt;&lt;span style=&quot;text-align: left&quot;&gt;remindID=(uuid算法)&lt;/span&gt;" style="rounded=1;whiteSpace=wrap;html=1;" vertex="1" parent="1">
          <mxGeometry x="-187.5" y="460" width="120" height="60" as="geometry" />
        </mxCell>
        <mxCell id="EvDbIWPLK_iTkj3-h5W0-32" style="edgeStyle=orthogonalEdgeStyle;rounded=0;orthogonalLoop=1;jettySize=auto;html=1;exitX=0.5;exitY=1;exitDx=0;exitDy=0;entryX=0.5;entryY=0;entryDx=0;entryDy=0;" edge="1" parent="1" source="EvDbIWPLK_iTkj3-h5W0-28" target="EvDbIWPLK_iTkj3-h5W0-30">
          <mxGeometry relative="1" as="geometry" />
        </mxCell>
        <mxCell id="EvDbIWPLK_iTkj3-h5W0-28" value="普通类线索&lt;br&gt;tagtype=2&lt;br&gt;&lt;span style=&quot;text-align: left&quot;&gt;remindID=0&lt;/span&gt;" style="rounded=1;whiteSpace=wrap;html=1;" vertex="1" parent="1">
          <mxGeometry x="35" y="460" width="120" height="60" as="geometry" />
        </mxCell>
        <mxCell id="EvDbIWPLK_iTkj3-h5W0-30" value="插入leads_piublic" style="rounded=1;whiteSpace=wrap;html=1;" vertex="1" parent="1">
          <mxGeometry x="-79.5" y="560" width="120" height="60" as="geometry" />
        </mxCell>
        <mxCell id="EvDbIWPLK_iTkj3-h5W0-33" value="插入leads_remind" style="rounded=1;whiteSpace=wrap;html=1;" vertex="1" parent="1">
          <mxGeometry x="-187.5" y="630" width="120" height="60" as="geometry" />
        </mxCell>
        <mxCell id="EvDbIWPLK_iTkj3-h5W0-37" style="edgeStyle=orthogonalEdgeStyle;rounded=0;orthogonalLoop=1;jettySize=auto;html=1;exitX=0;exitY=0.25;exitDx=0;exitDy=0;" edge="1" parent="1" target="EvDbIWPLK_iTkj3-h5W0-22">
          <mxGeometry relative="1" as="geometry">
            <mxPoint x="87.5" y="405" as="sourcePoint" />
          </mxGeometry>
        </mxCell>
        <mxCell id="EvDbIWPLK_iTkj3-h5W0-36" value="业绩接口获取成单列表" style="text;html=1;strokeColor=none;fillColor=none;align=center;verticalAlign=middle;whiteSpace=wrap;rounded=0;" vertex="1" parent="1">
          <mxGeometry x="87.5" y="395" width="125" height="20" as="geometry" />
        </mxCell>
        <mxCell id="EvDbIWPLK_iTkj3-h5W0-138" style="edgeStyle=orthogonalEdgeStyle;rounded=0;orthogonalLoop=1;jettySize=auto;html=1;exitX=0.5;exitY=1;exitDx=0;exitDy=0;" edge="1" parent="1">
          <mxGeometry relative="1" as="geometry">
            <mxPoint x="890" y="160" as="targetPoint" />
            <mxPoint x="890" y="140" as="sourcePoint" />
          </mxGeometry>
        </mxCell>
        <mxCell id="EvDbIWPLK_iTkj3-h5W0-139" style="edgeStyle=orthogonalEdgeStyle;rounded=0;orthogonalLoop=1;jettySize=auto;html=1;exitX=0.5;exitY=1;exitDx=0;exitDy=0;entryX=0.5;entryY=0;entryDx=0;entryDy=0;" edge="1" parent="1" source="EvDbIWPLK_iTkj3-h5W0-140" target="EvDbIWPLK_iTkj3-h5W0-145">
          <mxGeometry relative="1" as="geometry" />
        </mxCell>
        <mxCell id="EvDbIWPLK_iTkj3-h5W0-140" value="获取待执行任务" style="rounded=1;whiteSpace=wrap;html=1;" vertex="1" parent="1">
          <mxGeometry x="830" y="160" width="120" height="30" as="geometry" />
        </mxCell>
        <mxCell id="EvDbIWPLK_iTkj3-h5W0-141" style="edgeStyle=orthogonalEdgeStyle;rounded=0;orthogonalLoop=1;jettySize=auto;html=1;exitX=0;exitY=0.5;exitDx=0;exitDy=0;entryX=1;entryY=0.5;entryDx=0;entryDy=0;" edge="1" parent="1" source="EvDbIWPLK_iTkj3-h5W0-142" target="EvDbIWPLK_iTkj3-h5W0-140">
          <mxGeometry relative="1" as="geometry" />
        </mxCell>
        <mxCell id="EvDbIWPLK_iTkj3-h5W0-142" value="查询state=1且business_id&amp;gt;0且updated_at&amp;gt;now() 00:00:00&amp;lt;now() 当前时间点减去一分钟&lt;br&gt;表 ：leads_assign_record&amp;nbsp; &amp;nbsp;只查询1条" style="text;whiteSpace=wrap;html=1;" vertex="1" parent="1">
          <mxGeometry x="1000" y="150" width="300" height="50" as="geometry" />
        </mxCell>
        <mxCell id="EvDbIWPLK_iTkj3-h5W0-143" style="edgeStyle=orthogonalEdgeStyle;rounded=0;orthogonalLoop=1;jettySize=auto;html=1;exitX=0;exitY=0.5;exitDx=0;exitDy=0;entryX=0;entryY=0.5;entryDx=0;entryDy=0;" edge="1" parent="1" source="EvDbIWPLK_iTkj3-h5W0-145" target="EvDbIWPLK_iTkj3-h5W0-140">
          <mxGeometry relative="1" as="geometry" />
        </mxCell>
        <mxCell id="EvDbIWPLK_iTkj3-h5W0-144" style="edgeStyle=orthogonalEdgeStyle;rounded=0;orthogonalLoop=1;jettySize=auto;html=1;exitX=0.5;exitY=1;exitDx=0;exitDy=0;entryX=0.5;entryY=0;entryDx=0;entryDy=0;" edge="1" parent="1" source="EvDbIWPLK_iTkj3-h5W0-145" target="EvDbIWPLK_iTkj3-h5W0-149">
          <mxGeometry relative="1" as="geometry" />
        </mxCell>
        <mxCell id="EvDbIWPLK_iTkj3-h5W0-145" value="判断上一条任务是否执行完" style="rounded=1;whiteSpace=wrap;html=1;" vertex="1" parent="1">
          <mxGeometry x="812.5" y="210" width="155" height="30" as="geometry" />
        </mxCell>
        <mxCell id="EvDbIWPLK_iTkj3-h5W0-146" value="执行完" style="text;html=1;align=center;verticalAlign=middle;resizable=0;points=[];autosize=1;" vertex="1" parent="1">
          <mxGeometry x="900" y="240" width="50" height="20" as="geometry" />
        </mxCell>
        <mxCell id="EvDbIWPLK_iTkj3-h5W0-147" value="等一下&lt;br&gt;sleep 10s" style="text;html=1;align=center;verticalAlign=middle;resizable=0;points=[];autosize=1;" vertex="1" parent="1">
          <mxGeometry x="730" y="185" width="70" height="30" as="geometry" />
        </mxCell>
        <mxCell id="EvDbIWPLK_iTkj3-h5W0-148" style="edgeStyle=orthogonalEdgeStyle;rounded=0;orthogonalLoop=1;jettySize=auto;html=1;exitX=0.5;exitY=1;exitDx=0;exitDy=0;entryX=0.5;entryY=0;entryDx=0;entryDy=0;" edge="1" parent="1" source="EvDbIWPLK_iTkj3-h5W0-149" target="EvDbIWPLK_iTkj3-h5W0-154">
          <mxGeometry relative="1" as="geometry" />
        </mxCell>
        <mxCell id="EvDbIWPLK_iTkj3-h5W0-149" value="可用的stafflist待分配详请" style="rounded=1;whiteSpace=wrap;html=1;" vertex="1" parent="1">
          <mxGeometry x="812.5" y="260" width="157.5" height="30" as="geometry" />
        </mxCell>
        <mxCell id="EvDbIWPLK_iTkj3-h5W0-150" value="" style="edgeStyle=orthogonalEdgeStyle;rounded=0;orthogonalLoop=1;jettySize=auto;html=1;" edge="1" parent="1" source="EvDbIWPLK_iTkj3-h5W0-151" target="EvDbIWPLK_iTkj3-h5W0-149">
          <mxGeometry relative="1" as="geometry" />
        </mxCell>
        <mxCell id="EvDbIWPLK_iTkj3-h5W0-151" value="&lt;div style=&quot;text-align: left&quot;&gt;&lt;span&gt;map&lt;/span&gt;&lt;/div&gt;&lt;div style=&quot;text-align: left&quot;&gt;&lt;span&gt;可用坐席需要补充多少线索&lt;/span&gt;&lt;/div&gt;&lt;div style=&quot;text-align: left&quot;&gt;&lt;span&gt;待分配线索list&lt;/span&gt;&lt;/div&gt;&lt;div style=&quot;text-align: left&quot;&gt;更新状态&lt;/div&gt;" style="text;html=1;align=center;verticalAlign=middle;resizable=0;points=[];autosize=1;" vertex="1" parent="1">
          <mxGeometry x="1000" y="245" width="160" height="60" as="geometry" />
        </mxCell>
        <mxCell id="EvDbIWPLK_iTkj3-h5W0-152" style="edgeStyle=orthogonalEdgeStyle;rounded=0;orthogonalLoop=1;jettySize=auto;html=1;exitX=0.5;exitY=1;exitDx=0;exitDy=0;entryX=0.5;entryY=0;entryDx=0;entryDy=0;" edge="1" parent="1" source="EvDbIWPLK_iTkj3-h5W0-154" target="EvDbIWPLK_iTkj3-h5W0-157">
          <mxGeometry relative="1" as="geometry" />
        </mxCell>
        <mxCell id="EvDbIWPLK_iTkj3-h5W0-153" style="edgeStyle=orthogonalEdgeStyle;rounded=0;orthogonalLoop=1;jettySize=auto;html=1;entryX=0.007;entryY=0.5;entryDx=0;entryDy=0;entryPerimeter=0;" edge="1" parent="1" source="EvDbIWPLK_iTkj3-h5W0-154" target="EvDbIWPLK_iTkj3-h5W0-155">
          <mxGeometry relative="1" as="geometry" />
        </mxCell>
        <mxCell id="EvDbIWPLK_iTkj3-h5W0-154" value="遍历stafflist" style="rounded=1;whiteSpace=wrap;html=1;" vertex="1" parent="1">
          <mxGeometry x="845.5" y="310" width="89" height="30" as="geometry" />
        </mxCell>
        <mxCell id="EvDbIWPLK_iTkj3-h5W0-155" value="给每一个坐席分配线索" style="text;html=1;align=center;verticalAlign=middle;resizable=0;points=[];autosize=1;" vertex="1" parent="1">
          <mxGeometry x="1050" y="315" width="140" height="20" as="geometry" />
        </mxCell>
        <mxCell id="EvDbIWPLK_iTkj3-h5W0-156" style="edgeStyle=orthogonalEdgeStyle;rounded=0;orthogonalLoop=1;jettySize=auto;html=1;exitX=0.5;exitY=1;exitDx=0;exitDy=0;entryX=0.5;entryY=0;entryDx=0;entryDy=0;" edge="1" parent="1" source="EvDbIWPLK_iTkj3-h5W0-157" target="EvDbIWPLK_iTkj3-h5W0-160">
          <mxGeometry relative="1" as="geometry" />
        </mxCell>
        <mxCell id="EvDbIWPLK_iTkj3-h5W0-157" value="leads_public中获取分配中的线索" style="rounded=1;whiteSpace=wrap;html=1;" vertex="1" parent="1">
          <mxGeometry x="830" y="360" width="119.38" height="40" as="geometry" />
        </mxCell>
        <mxCell id="EvDbIWPLK_iTkj3-h5W0-158" style="edgeStyle=orthogonalEdgeStyle;rounded=0;orthogonalLoop=1;jettySize=auto;html=1;exitX=0.5;exitY=1;exitDx=0;exitDy=0;" edge="1" parent="1" source="EvDbIWPLK_iTkj3-h5W0-160" target="EvDbIWPLK_iTkj3-h5W0-161">
          <mxGeometry relative="1" as="geometry" />
        </mxCell>
        <mxCell id="EvDbIWPLK_iTkj3-h5W0-159" style="edgeStyle=orthogonalEdgeStyle;rounded=0;orthogonalLoop=1;jettySize=auto;html=1;exitX=0.5;exitY=1;exitDx=0;exitDy=0;entryX=0.5;entryY=0;entryDx=0;entryDy=0;" edge="1" parent="1" source="EvDbIWPLK_iTkj3-h5W0-160">
          <mxGeometry relative="1" as="geometry">
            <mxPoint x="1002.75" y="500" as="targetPoint" />
          </mxGeometry>
        </mxCell>
        <mxCell id="EvDbIWPLK_iTkj3-h5W0-160" value="判断线索的当前坐席是否是第一管家" style="rounded=1;whiteSpace=wrap;html=1;" vertex="1" parent="1">
          <mxGeometry x="828.76" y="420" width="120.62" height="30" as="geometry" />
        </mxCell>
        <mxCell id="EvDbIWPLK_iTkj3-h5W0-161" value="绑定坐席和线索关系" style="rounded=1;whiteSpace=wrap;html=1;" vertex="1" parent="1">
          <mxGeometry x="725.5" y="500" width="114.5" height="30" as="geometry" />
        </mxCell>
        <mxCell id="EvDbIWPLK_iTkj3-h5W0-162" value="是" style="text;html=1;align=center;verticalAlign=middle;resizable=0;points=[];autosize=1;" vertex="1" parent="1">
          <mxGeometry x="805" y="450" width="30" height="20" as="geometry" />
        </mxCell>
        <mxCell id="EvDbIWPLK_iTkj3-h5W0-163" value="否" style="text;html=1;align=center;verticalAlign=middle;resizable=0;points=[];autosize=1;" vertex="1" parent="1">
          <mxGeometry x="925" y="450" width="30" height="20" as="geometry" />
        </mxCell>
        <mxCell id="EvDbIWPLK_iTkj3-h5W0-164" style="edgeStyle=orthogonalEdgeStyle;rounded=0;orthogonalLoop=1;jettySize=auto;html=1;exitX=0.5;exitY=1;exitDx=0;exitDy=0;entryX=0.5;entryY=0;entryDx=0;entryDy=0;" edge="1" parent="1" source="EvDbIWPLK_iTkj3-h5W0-166" target="EvDbIWPLK_iTkj3-h5W0-169">
          <mxGeometry relative="1" as="geometry" />
        </mxCell>
        <mxCell id="EvDbIWPLK_iTkj3-h5W0-165" style="edgeStyle=orthogonalEdgeStyle;rounded=0;orthogonalLoop=1;jettySize=auto;html=1;exitX=0.5;exitY=1;exitDx=0;exitDy=0;entryX=0.5;entryY=0;entryDx=0;entryDy=0;" edge="1" parent="1" source="EvDbIWPLK_iTkj3-h5W0-166" target="EvDbIWPLK_iTkj3-h5W0-171">
          <mxGeometry relative="1" as="geometry" />
        </mxCell>
        <mxCell id="EvDbIWPLK_iTkj3-h5W0-166" value="调用接口最近一次通话记录" style="rounded=1;whiteSpace=wrap;html=1;align=left;" vertex="1" parent="1">
          <mxGeometry x="925" y="500" width="149" height="30" as="geometry" />
        </mxCell>
        <mxCell id="EvDbIWPLK_iTkj3-h5W0-167" style="edgeStyle=orthogonalEdgeStyle;rounded=0;orthogonalLoop=1;jettySize=auto;html=1;exitX=0.5;exitY=1;exitDx=0;exitDy=0;entryX=0.5;entryY=0;entryDx=0;entryDy=0;" edge="1" parent="1" source="EvDbIWPLK_iTkj3-h5W0-169" target="EvDbIWPLK_iTkj3-h5W0-174">
          <mxGeometry relative="1" as="geometry" />
        </mxCell>
        <mxCell id="EvDbIWPLK_iTkj3-h5W0-168" style="edgeStyle=orthogonalEdgeStyle;rounded=0;orthogonalLoop=1;jettySize=auto;html=1;exitX=0.5;exitY=1;exitDx=0;exitDy=0;entryX=0.5;entryY=0;entryDx=0;entryDy=0;" edge="1" parent="1" source="EvDbIWPLK_iTkj3-h5W0-169" target="EvDbIWPLK_iTkj3-h5W0-176">
          <mxGeometry relative="1" as="geometry" />
        </mxCell>
        <mxCell id="EvDbIWPLK_iTkj3-h5W0-169" value="&lt;span&gt;判断线索创建到最近一次通话时间间隔是否大于60d&lt;/span&gt;" style="rounded=1;whiteSpace=wrap;html=1;" vertex="1" parent="1">
          <mxGeometry x="845.5" y="580" width="150" height="40" as="geometry" />
        </mxCell>
        <mxCell id="EvDbIWPLK_iTkj3-h5W0-170" style="edgeStyle=orthogonalEdgeStyle;rounded=0;orthogonalLoop=1;jettySize=auto;html=1;exitX=0.5;exitY=1;exitDx=0;exitDy=0;entryX=0.5;entryY=0;entryDx=0;entryDy=0;" edge="1" parent="1" source="EvDbIWPLK_iTkj3-h5W0-171" target="EvDbIWPLK_iTkj3-h5W0-180">
          <mxGeometry relative="1" as="geometry" />
        </mxCell>
        <mxCell id="EvDbIWPLK_iTkj3-h5W0-171" value="判断最近一次分配记录" style="rounded=1;whiteSpace=wrap;html=1;" vertex="1" parent="1">
          <mxGeometry x="1075" y="580" width="135" height="40" as="geometry" />
        </mxCell>
        <mxCell id="EvDbIWPLK_iTkj3-h5W0-172" value="有" style="text;html=1;align=center;verticalAlign=middle;resizable=0;points=[];autosize=1;" vertex="1" parent="1">
          <mxGeometry x="945" y="530" width="30" height="20" as="geometry" />
        </mxCell>
        <mxCell id="EvDbIWPLK_iTkj3-h5W0-173" value="无" style="text;html=1;align=center;verticalAlign=middle;resizable=0;points=[];autosize=1;" vertex="1" parent="1">
          <mxGeometry x="1015" y="530" width="30" height="20" as="geometry" />
        </mxCell>
        <mxCell id="EvDbIWPLK_iTkj3-h5W0-174" value="随机分配" style="rounded=1;whiteSpace=wrap;html=1;" vertex="1" parent="1">
          <mxGeometry x="790" y="660" width="90" height="40" as="geometry" />
        </mxCell>
        <mxCell id="EvDbIWPLK_iTkj3-h5W0-175" value="大于" style="text;html=1;align=center;verticalAlign=middle;resizable=0;points=[];autosize=1;" vertex="1" parent="1">
          <mxGeometry x="840" y="620" width="40" height="20" as="geometry" />
        </mxCell>
        <mxCell id="EvDbIWPLK_iTkj3-h5W0-176" value="&lt;span&gt;绑定坐席和线索关系&lt;/span&gt;" style="rounded=1;whiteSpace=wrap;html=1;" vertex="1" parent="1">
          <mxGeometry x="945" y="660" width="90" height="40" as="geometry" />
        </mxCell>
        <mxCell id="EvDbIWPLK_iTkj3-h5W0-177" value="小于" style="text;html=1;align=center;verticalAlign=middle;resizable=0;points=[];autosize=1;" vertex="1" parent="1">
          <mxGeometry x="930" y="620" width="40" height="20" as="geometry" />
        </mxCell>
        <mxCell id="EvDbIWPLK_iTkj3-h5W0-178" style="edgeStyle=orthogonalEdgeStyle;rounded=0;orthogonalLoop=1;jettySize=auto;html=1;exitX=0.5;exitY=1;exitDx=0;exitDy=0;entryX=0.5;entryY=0;entryDx=0;entryDy=0;" edge="1" parent="1" source="EvDbIWPLK_iTkj3-h5W0-180" target="EvDbIWPLK_iTkj3-h5W0-181">
          <mxGeometry relative="1" as="geometry" />
        </mxCell>
        <mxCell id="EvDbIWPLK_iTkj3-h5W0-179" style="edgeStyle=orthogonalEdgeStyle;rounded=0;orthogonalLoop=1;jettySize=auto;html=1;exitX=0.5;exitY=1;exitDx=0;exitDy=0;entryX=0.5;entryY=0;entryDx=0;entryDy=0;" edge="1" parent="1" source="EvDbIWPLK_iTkj3-h5W0-180" target="EvDbIWPLK_iTkj3-h5W0-182">
          <mxGeometry relative="1" as="geometry" />
        </mxCell>
        <mxCell id="EvDbIWPLK_iTkj3-h5W0-180" value="判断线索创建到最近一次分配时间间隔是否大于60d" style="rounded=1;whiteSpace=wrap;html=1;" vertex="1" parent="1">
          <mxGeometry x="1066.56" y="660" width="151.87" height="40" as="geometry" />
        </mxCell>
        <mxCell id="EvDbIWPLK_iTkj3-h5W0-181" value="&lt;span&gt;随机分配&lt;/span&gt;" style="rounded=1;whiteSpace=wrap;html=1;" vertex="1" parent="1">
          <mxGeometry x="995.5" y="760" width="114.5" height="40" as="geometry" />
        </mxCell>
        <mxCell id="EvDbIWPLK_iTkj3-h5W0-182" value="&lt;span&gt;绑定坐席和线索关系&lt;/span&gt;" style="rounded=1;whiteSpace=wrap;html=1;" vertex="1" parent="1">
          <mxGeometry x="1170" y="760" width="110" height="40" as="geometry" />
        </mxCell>
        <mxCell id="EvDbIWPLK_iTkj3-h5W0-183" value="有" style="text;html=1;align=center;verticalAlign=middle;resizable=0;points=[];autosize=1;" vertex="1" parent="1">
          <mxGeometry x="1150" y="630" width="30" height="20" as="geometry" />
        </mxCell>
        <mxCell id="EvDbIWPLK_iTkj3-h5W0-184" value="大于" style="text;html=1;align=center;verticalAlign=middle;resizable=0;points=[];autosize=1;" vertex="1" parent="1">
          <mxGeometry x="1070" y="710" width="40" height="20" as="geometry" />
        </mxCell>
        <mxCell id="EvDbIWPLK_iTkj3-h5W0-185" value="小于" style="text;html=1;align=center;verticalAlign=middle;resizable=0;points=[];autosize=1;" vertex="1" parent="1">
          <mxGeometry x="1160" y="710" width="40" height="20" as="geometry" />
        </mxCell>
        <mxCell id="EvDbIWPLK_iTkj3-h5W0-186" value="按照fill的数量获取&lt;br&gt;如果超过1000，按照1000获取" style="text;html=1;align=center;verticalAlign=middle;resizable=0;points=[];autosize=1;" vertex="1" parent="1">
          <mxGeometry x="967.5" y="365" width="180" height="30" as="geometry" />
        </mxCell>
        <mxCell id="EvDbIWPLK_iTkj3-h5W0-187" style="edgeStyle=orthogonalEdgeStyle;rounded=0;orthogonalLoop=1;jettySize=auto;html=1;exitX=0.5;exitY=1;exitDx=0;exitDy=0;" edge="1" parent="1" source="EvDbIWPLK_iTkj3-h5W0-191" target="EvDbIWPLK_iTkj3-h5W0-192">
          <mxGeometry relative="1" as="geometry" />
        </mxCell>
        <mxCell id="EvDbIWPLK_iTkj3-h5W0-188" style="edgeStyle=orthogonalEdgeStyle;rounded=0;orthogonalLoop=1;jettySize=auto;html=1;exitX=0.5;exitY=1;exitDx=0;exitDy=0;entryX=0.5;entryY=0;entryDx=0;entryDy=0;" edge="1" parent="1" source="EvDbIWPLK_iTkj3-h5W0-191" target="EvDbIWPLK_iTkj3-h5W0-193">
          <mxGeometry relative="1" as="geometry" />
        </mxCell>
        <mxCell id="EvDbIWPLK_iTkj3-h5W0-189" style="edgeStyle=orthogonalEdgeStyle;rounded=0;orthogonalLoop=1;jettySize=auto;html=1;exitX=0.5;exitY=1;exitDx=0;exitDy=0;" edge="1" parent="1" source="EvDbIWPLK_iTkj3-h5W0-191" target="EvDbIWPLK_iTkj3-h5W0-194">
          <mxGeometry relative="1" as="geometry" />
        </mxCell>
        <mxCell id="EvDbIWPLK_iTkj3-h5W0-190" style="edgeStyle=orthogonalEdgeStyle;rounded=0;orthogonalLoop=1;jettySize=auto;html=1;exitX=0.5;exitY=1;exitDx=0;exitDy=0;" edge="1" parent="1">
          <mxGeometry relative="1" as="geometry">
            <mxPoint x="1043.34" y="890" as="sourcePoint" />
            <mxPoint x="1288.4" y="932.5" as="targetPoint" />
          </mxGeometry>
        </mxCell>
        <mxCell id="EvDbIWPLK_iTkj3-h5W0-191" value="以上把每个坐席索引都填满为止" style="rounded=1;whiteSpace=wrap;html=1;align=left;" vertex="1" parent="1">
          <mxGeometry x="995.5" y="840" width="95.68" height="30" as="geometry" />
        </mxCell>
        <mxCell id="EvDbIWPLK_iTkj3-h5W0-192" value="更新leads_remind" style="rounded=1;whiteSpace=wrap;html=1;" vertex="1" parent="1">
          <mxGeometry x="770" y="910" width="100" height="40" as="geometry" />
        </mxCell>
        <mxCell id="EvDbIWPLK_iTkj3-h5W0-193" value="更新leads_piublic" style="rounded=1;whiteSpace=wrap;html=1;" vertex="1" parent="1">
          <mxGeometry x="916.8599999999999" y="910" width="100" height="40" as="geometry" />
        </mxCell>
        <mxCell id="EvDbIWPLK_iTkj3-h5W0-194" value="插入leads_flow_record" style="rounded=1;whiteSpace=wrap;html=1;" vertex="1" parent="1">
          <mxGeometry x="1054.0900000000001" y="910" width="135.91" height="40" as="geometry" />
        </mxCell>
        <mxCell id="EvDbIWPLK_iTkj3-h5W0-195" value="更新leads_assign_record" style="rounded=1;whiteSpace=wrap;html=1;" vertex="1" parent="1">
          <mxGeometry x="1218.4299999999998" y="912.5" width="140" height="35" as="geometry" />
        </mxCell>
        <mxCell id="EvDbIWPLK_iTkj3-h5W0-196" value="&lt;span style=&quot;color: rgba(0 , 0 , 0 , 0) ; font-family: monospace ; font-size: 0px&quot;&gt;%3CmxGraphModel%3E%3Croot%3E%3CmxCell%20id%3D%220%22%2F%3E%3CmxCell%20id%3D%221%22%20parent%3D%220%22%2F%3E%3CmxCell%20id%3D%222%22%20value%3D%22%E6%B3%A8%EF%BC%9A%E9%9A%8F%E6%9C%BA%E5%88%86%E9%85%8D%E6%8C%89%E7%85%A7%E5%8E%9F%E6%9C%89%E9%80%BB%E8%BE%91%E5%88%86%E4%B8%BA%E4%B8%A4%E7%A7%8D%E6%83%85%E5%86%B5%26lt%3Bbr%26gt%3B1%E3%80%81%E5%B9%B3%E5%9D%87%E5%88%86%EF%BC%8C2%E3%80%81%E9%A1%BA%E5%BA%8F%E5%88%86%22%20style%3D%22text%3Bhtml%3D1%3Balign%3Dcenter%3BverticalAlign%3Dmiddle%3Bresizable%3D0%3Bpoints%3D%5B%5D%3Bautosize%3D1%3B%22%20vertex%3D%221%22%20parent%3D%221%22%3E%3CmxGeometry%20x%3D%22415%22%20y%3D%221045%22%20width%3D%22230%22%20height%3D%2230%22%20as%3D%22geometry%22%2F%3E%3C%2FmxCell%3E%3C%2Froot%3E%3C%2FmxGraphModel%3E&lt;/span&gt;" style="text;html=1;align=center;verticalAlign=middle;resizable=0;points=[];autosize=1;" vertex="1" parent="1">
          <mxGeometry x="590" y="350" width="20" height="20" as="geometry" />
        </mxCell>
        <mxCell id="EvDbIWPLK_iTkj3-h5W0-197" value="注：随机分配按照原有逻辑分为两种情况&lt;br&gt;1、平均分，2、顺序分" style="text;html=1;align=center;verticalAlign=middle;resizable=0;points=[];autosize=1;" vertex="1" parent="1">
          <mxGeometry x="551" y="570" width="230" height="30" as="geometry" />
        </mxCell>
        <mxCell id="EvDbIWPLK_iTkj3-h5W0-198" value="线索分配" style="rounded=1;whiteSpace=wrap;html=1;" vertex="1" parent="1">
          <mxGeometry x="850" y="100" width="80" height="40" as="geometry" />
        </mxCell>
      </root>
    </mxGraphModel>
  </diagram>
</mxfile>
